<?xml version="1.0" encoding="UTF-8"?>
<svg version="1.1" xmlns="http://www.w3.org/2000/svg" width="512" height="512">
<path d="M0 0 C5.4887219 3.97932338 9.43685851 8.3031231 11.5 14.8125 C12.55742017 22.13967412 11.42233179 27.49676816 7.5 33.8125 C4.92904766 36.9372495 2.09566503 39.76157507 -0.77897644 42.60614014 C-2.04252086 43.88010285 -2.04252086 43.88010285 -3.33159143 45.17980218 C-5.65818609 47.52147235 -7.99336152 49.85392075 -10.33272994 52.18278766 C-12.85878779 54.70183219 -15.37328924 57.23236902 -17.88934326 59.76139832 C-22.81493016 64.70859461 -27.75130827 69.6448843 -32.69178107 74.57721058 C-36.70813788 78.58726018 -40.72074886 82.60102203 -44.73073769 86.61743927 C-45.302097 87.18970024 -45.87345631 87.7619612 -46.46212954 88.35156341 C-47.62293646 89.51422158 -48.78373772 90.67688541 -49.94453339 91.83955482 C-60.82299793 102.73458711 -71.71406384 113.61695318 -82.60923705 124.4952729 C-92.57029186 134.44163113 -102.51660825 144.40257683 -112.45588633 154.37069234 C-122.66971699 164.6139353 -132.89274467 174.84791164 -143.12606317 185.07168698 C-144.28411728 186.22871857 -145.44215744 187.38576412 -146.60018349 188.54282379 C-147.16990795 189.11207187 -147.73963242 189.68131994 -148.32662126 190.26781796 C-152.33425574 194.27329077 -156.3358821 198.2847056 -160.33513451 202.29854584 C-165.21169018 207.19264136 -170.09699845 212.07779188 -174.99368718 216.95174685 C-177.49022179 219.43715452 -179.98262989 221.92634992 -182.46427345 224.42663383 C-185.15804107 227.14037334 -187.8710244 229.83437013 -190.58610535 232.52679443 C-191.36258759 233.31511241 -192.13906984 234.10343038 -192.93908185 234.91563678 C-198.74240649 240.6210828 -204.26109139 244.27422589 -212.4375 245.3125 C-222.92056555 244.63296284 -229.70499088 238.47279029 -236.75146484 231.30566406 C-237.7304084 230.33158666 -238.71064069 229.35880298 -239.69204712 228.38720703 C-242.33365939 225.76427716 -244.95625527 223.12308342 -247.57512236 220.47746754 C-250.32890863 217.70090879 -253.09824922 214.93993754 -255.86538696 212.17669678 C-260.50716298 207.53668192 -265.13688222 202.88490375 -269.75927734 198.22558594 C-275.09193873 192.85057138 -280.44206526 187.4934511 -285.80217206 182.14581513 C-290.97480095 176.9846021 -296.135971 171.81208025 -301.29167557 166.63396454 C-303.47869016 164.43769824 -305.66938164 162.24520118 -307.86314011 160.05567169 C-310.44821476 157.47438326 -313.02298827 154.88322627 -315.59035873 152.28433228 C-316.97607476 150.88617986 -318.37150914 149.49768002 -319.76727295 148.10955811 C-325.2093754 142.57482384 -329.68997267 137.57736666 -331.03125 129.6875 C-330.94024728 121.31524931 -329.65727337 116.04152959 -323.75 110 C-317.81597938 106.00594766 -311.78519573 103.59778472 -304.5 104.8125 C-297.10150682 107.09528448 -292.27238511 111.34223176 -286.95092773 116.79394531 C-286.14982071 117.5943222 -285.34871368 118.3946991 -284.52333069 119.21932983 C-281.89804653 121.84807655 -279.29088513 124.49404177 -276.68359375 127.140625 C-274.85909234 128.97445912 -273.03347841 130.807187 -271.20680237 132.63885498 C-266.90535671 136.957392 -262.61522074 141.28686969 -258.33045584 145.62194896 C-253.44793643 150.56053861 -248.55105086 155.48477818 -243.65296257 160.40791941 C-233.58601672 170.52699527 -223.53741069 180.66413213 -213.5 190.8125 C-208.3449105 186.50124762 -203.53337758 181.97832955 -198.80262756 177.20846558 C-197.6873131 176.09019935 -197.6873131 176.09019935 -196.54946703 174.94934189 C-194.07233686 172.46452674 -191.59882174 169.97614424 -189.12524414 167.48779297 C-187.34435741 165.70007201 -185.56321788 163.91260284 -183.78184509 162.12536621 C-179.95287215 158.28308631 -176.12530722 154.43941201 -172.29875374 150.59472275 C-166.24714339 144.51482201 -160.18968814 138.44076272 -154.13121033 132.3677063 C-152.05545392 130.28682643 -149.97972285 128.20592128 -147.90399075 126.12501717 C-147.38535427 125.60509466 -146.86671779 125.08517215 -146.33236505 124.54949441 C-140.43830814 118.64072539 -134.54514036 112.73107011 -128.65258789 106.82080078 C-128.114353 106.28095114 -127.5761181 105.74110151 -127.02157306 105.18489279 C-118.29332858 96.43009414 -109.57070918 87.66970871 -100.84968955 78.90771388 C-91.88448107 69.90074349 -82.91160502 60.90146093 -73.93201345 51.90882981 C-68.39932172 46.36755358 -62.87291632 40.82015535 -57.35448705 35.26467468 C-53.12522659 31.00822639 -48.88553007 26.76233121 -44.6418705 22.52023315 C-42.90497159 20.7806377 -41.17150559 19.03760681 -39.44176102 17.29089737 C-37.07845688 14.90542485 -34.7030884 12.53264101 -32.32435608 10.16256714 C-31.30424355 9.12395438 -31.30424355 9.12395438 -30.26352268 8.06435955 C-21.60682158 -0.4938191 -12.05269259 -4.08930641 0 0 Z " fill="#000000" transform="translate(415.5,129.1875)"/>
</svg>
